<?xml version="1.0" encoding="utf-8"?>
<!-- Generator: Adobe Illustrator 24.0.1, SVG Export Plug-In . SVG Version: 6.00 Build 0)  -->
<svg version="1.1" id="Capa_1" xmlns="http://www.w3.org/2000/svg" xmlns:xlink="http://www.w3.org/1999/xlink" x="0px" y="0px"
	 viewBox="0 0 1080 1920" style="enable-background:new 0 0 1080 1920;" xml:space="preserve">
<style type="text/css">
	.st0{fill:none;}
	.st1{font-family:'Montserrat-Bold';}
	.st2{font-size:111.1337px;}
	.st3{fill:#ED7D31;}
	.st4{font-size:242.386px;}
</style>
<rect x="95" y="921.1" class="st0" width="890" height="100.9"/>
<text transform="matrix(1 0 0 1 395.5884 1003.5545)" class="st1 st2">WEB</text>
<rect x="62.6" y="1038.5" class="st0" width="954.9" height="220"/>
<text transform="matrix(1 0 0 1 243.3272 1218.3914)" class="st3 st1 st4">B&amp;M</text>
<rect x="815.4" y="322.4" class="st3" width="94.8" height="281.7"/>
<rect x="823" y="331.1" class="st3" width="94.8" height="281.7"/>
<rect x="169.6" y="322.4" class="st3" width="94.8" height="281.7"/>
<g>
	<g>
		<path class="st3" d="M393.4,424.8c-13.1-12.7-19.7-28.8-19.7-48.3c0-18.8,6.6-34.5,19.7-47.2c13.1-12.7,29.4-19.1,48.9-19.1H638
			c19.5,0,35.8,6.6,49,19.7c13.1,13.1,19.7,29.4,19.7,48.9c0,18.8-6.6,34.3-19.7,46.7c-13.1,12.4-29.5,18.6-49,18.6H442.3
			C422.8,443.9,406.5,437.5,393.4,424.8z"/>
		<path class="st3" d="M393.4,616.6c-13.1-12.7-19.7-28.8-19.7-48.3c0-18.8,6.6-34.5,19.7-47.2c13.1-12.7,29.4-19.1,48.9-19.1H638
			c19.5,0,35.8,6.6,49,19.7c13.1,13.1,19.7,29.4,19.7,48.9c0,18.8-6.6,34.3-19.7,46.7c-13.1,12.4-29.5,18.6-49,18.6H442.3
			C422.8,635.7,406.5,629.4,393.4,616.6z"/>
	</g>
</g>
<g>
	<path d="M701.9,102.8c-5.8-7.4-8.7-15.3-8.7-23.7c0-11,3.9-20.6,11.6-29c7.8-8.4,17.1-12.6,28.1-12.6c6.4,0,11.3,0.3,14.5,1
		c66.5,13.5,112.6,35.3,138.4,65.3c25.8,30,38.7,69.8,38.7,119.5l-1.9,98.7c0,34.8,7.7,61,23.2,78.4c15.5,17.4,36.5,26.7,62.9,28
		h3.9c12.3,0,22.7,4.2,31.4,12.6c8.7,8.4,13.1,19,13.1,32c0,12.9-4.3,23.5-13.1,31.9c-8.7,8.4-19.2,12.6-31.4,12.6h-5.8
		c-25.8,1.3-46.3,10.6-61.5,28.1c-15.2,17.4-22.8,43.5-22.8,78.4l1.9,98.7c0,49.7-12.9,89.5-38.7,119.5
		c-25.8,30-71.9,51.8-138.4,65.3c-2.6,0.6-6.4,1-11.6,1c-13.5,0-24-4.2-31.4-12.6c-7.4-8.4-11.1-18.7-11.1-31
		c0-8.4,3.1-16.1,9.2-23.2s14-12.3,23.7-15.5c25.8-9,45.1-18.9,58-29.5c12.9-10.6,21.5-22.9,25.7-36.8c4.2-13.9,6.3-31.8,6.3-53.7
		l-1.9-100.6c0-35.5,8.5-63.7,25.7-84.7c17.1-21,41.5-36.9,73-47.9c-31.6-11-56-27.1-73-48.4c-17.1-21.3-25.7-49.3-25.7-84.2
		l1.9-100.6c0-22-2.3-39.7-6.8-53.2c-4.5-13.5-13-25.6-25.6-36.3c-12.6-10.6-31.8-20.8-57.6-30.5
		C715.8,115.8,707.7,110.2,701.9,102.8z"/>
	<path d="M36.4,505.3c-8.7-8.4-13.1-19-13.1-32s4.4-23.5,13.1-31.9c8.7-8.4,19.2-12.6,31.4-12.6h5.8c25.8-1.3,46.3-10.6,61.5-28.1
		c15.1-17.4,22.7-43.5,22.7-78.4l-1.9-98.7c0-49.7,12.9-89.5,38.7-119.5c25.8-30,71.9-51.8,138.3-65.3c6.4-1.3,12-1.9,16.5-1.9
		c11,0,20,4.8,27.1,14.5c7.1,9.7,10.6,19.7,10.6,30c0,8.4-3.1,16.1-9.2,23.2c-6.1,7.1-14,12.3-23.7,15.5
		c-25.8,9-45.1,18.9-58.1,29.5c-12.9,10.6-21.4,22.9-25.7,36.8c-4.2,13.9-6.3,31.8-6.3,53.7l1.9,100.6c0,35.5-8.5,63.7-25.6,84.7
		c-17.1,20.9-41.5,36.9-73.1,47.9c31.6,11,55.9,27.1,73.1,48.4c17.1,21.3,25.6,49.3,25.6,84.2l-1.9,100.6c0,21.9,2.3,39.7,6.8,53.2
		c4.5,13.5,13,25.7,25.6,36.3c12.6,10.6,31.8,20.8,57.6,30.5c10.3,3.9,18.4,9.5,24.2,16.9c5.8,7.4,8.7,15.3,8.7,23.7
		c0,11-3.9,20.7-11.6,29c-7.7,8.4-17.1,12.6-28.1,12.6c-6.4,0-11.3-0.3-14.5-1c-66.4-13.6-112.6-35.3-138.3-65.3
		c-25.8-30-38.7-69.8-38.7-119.5l1.9-98.7c0-34.8-7.7-61-23.2-78.4c-15.5-17.4-36.4-26.8-62.9-28.1h-3.9
		C55.6,517.9,45.1,513.7,36.4,505.3z"/>
</g>
</svg>
